<svg id="visual" viewBox="0 0 960 540" width="960" height="540" xmlns="http://www.w3.org/2000/svg" xmlns:xlink="http://www.w3.org/1999/xlink" version="1.1"><rect x="0" y="0" width="960" height="540" fill="#FFFFFF"></rect><defs><linearGradient id="grad1_0" x1="43.8%" y1="0%" x2="100%" y2="100%"><stop offset="14.444444444444446%" stop-color="#ffffff" stop-opacity="1"></stop><stop offset="85.55555555555554%" stop-color="#ffffff" stop-opacity="1"></stop></linearGradient></defs><defs><linearGradient id="grad2_0" x1="0%" y1="0%" x2="56.3%" y2="100%"><stop offset="14.444444444444446%" stop-color="#ffffff" stop-opacity="1"></stop><stop offset="85.55555555555554%" stop-color="#ffffff" stop-opacity="1"></stop></linearGradient></defs><g transform="translate(960, 0)"><path d="M0 270C-31.2 254.5 -62.3 239 -93.8 226.4C-125.2 213.7 -156.9 204.1 -184.6 184.6C-212.2 165 -235.9 135.7 -249.4 103.3C-263 70.9 -266.5 35.5 -270 0L0 0Z" fill="#98c1d9"></path></g><g transform="translate(0, 540)"><path d="M0 -270C34.2 -264.7 68.5 -259.3 102.6 -247.6C136.6 -235.9 170.5 -217.8 190.9 -190.9C211.3 -164 218.2 -128.2 229.1 -94.9C240.1 -61.6 255 -30.8 270 0L0 0Z" fill="#98c1d9"></path></g></svg>