<svg id="visual" viewBox="0 0 900 600" width="900" height="600" xmlns="http://www.w3.org/2000/svg" xmlns:xlink="http://www.w3.org/1999/xlink" version="1.1"><rect x="0" y="0" width="900" height="600" fill="#e0fbfc"></rect><defs><linearGradient id="grad1_0" x1="33.3%" y1="0%" x2="100%" y2="100%"><stop offset="20%" stop-color="#e0fbfc" stop-opacity="1"></stop><stop offset="80%" stop-color="#e0fbfc" stop-opacity="1"></stop></linearGradient></defs><defs><linearGradient id="grad2_0" x1="0%" y1="0%" x2="66.7%" y2="100%"><stop offset="20%" stop-color="#e0fbfc" stop-opacity="1"></stop><stop offset="80%" stop-color="#e0fbfc" stop-opacity="1"></stop></linearGradient></defs><g transform="translate(900, 0)"><path d="M0 297.5C-41.6 296.5 -83.1 295.6 -113.8 274.8C-144.5 254.1 -164.4 213.5 -181 181C-197.7 148.5 -211.2 124.1 -230 95.3C-248.9 66.5 -273.2 33.2 -297.5 0L0 0Z" fill="#98c1d9"></path></g><g transform="translate(0, 600)"><path d="M0 -297.5C38.5 -293.5 76.9 -289.5 113.8 -274.8C150.7 -260.2 186 -234.9 202.2 -202.2C218.4 -169.6 215.5 -129.5 228.2 -94.5C240.9 -59.6 269.2 -29.8 297.5 0L0 0Z" fill="#98c1d9"></path></g></svg>