<svg id="visual" viewBox="0 0 900 600" width="900" height="600" xmlns="http://www.w3.org/2000/svg"
     xmlns:xlink="http://www.w3.org/1999/xlink" version="1.1">
    <rect x="0" y="0" width="900" height="600" fill="#002233"></rect>
    <path d="M0 444L21.5 445.5C43 447 86 450 128.8 450C171.7 450 214.3 447 257.2 439.2C300 431.3 343 418.7 385.8 409C428.7 399.3 471.3 392.7 514.2 390.8C557 389 600 392 642.8 394.7C685.7 397.3 728.3 399.7 771.2 401.5C814 403.3 857 404.7 878.5 405.3L900 406L900 601L878.5 601C857 601 814 601 771.2 601C728.3 601 685.7 601 642.8 601C600 601 557 601 514.2 601C471.3 601 428.7 601 385.8 601C343 601 300 601 257.2 601C214.3 601 171.7 601 128.8 601C86 601 43 601 21.5 601L0 601Z"
          fill="#0066FF" stroke-linecap="round" stroke-linejoin="miter"></path>
</svg>